<svg width="24" height="24" viewBox="0 0 24 24" fill="none" xmlns="http://www.w3.org/2000/svg">
<path d="M8 6.00081V18.0008M17 8.07386V15.9278C17 16.9223 17 17.4196 16.7934 17.6889C16.6135 17.9234 16.339 18.0663 16.0437 18.0792C15.7046 18.094 15.2972 17.8089 14.4825 17.2385L9.8088 13.967C8.86389 13.3055 8.39144 12.9748 8.22495 12.5628C8.07927 12.2023 8.07927 11.7993 8.22495 11.4388C8.39144 11.0268 8.86389 10.6961 9.8088 10.0347L14.4825 6.76309C15.2972 6.19276 15.7046 5.90759 16.0437 5.92243C16.339 5.93535 16.6135 6.07824 16.7934 6.31274C17 6.58204 17 7.07931 17 8.07386Z" stroke="white" stroke-width="2" stroke-linecap="round" stroke-linejoin="round"/>
</svg>
