<svg width="24" height="24" viewBox="0 0 24 24" fill="none" xmlns="http://www.w3.org/2000/svg">
<path d="M16 6.00081V18.0008M7 8.07386V15.9278C7 16.9223 7 17.4196 7.20662 17.6889C7.38655 17.9234 7.66099 18.0663 7.95628 18.0792C8.29539 18.094 8.70277 17.8089 9.51754 17.2385L14.1912 13.967C15.1361 13.3055 15.6086 12.9748 15.7751 12.5628C15.9207 12.2023 15.9207 11.7993 15.7751 11.4388C15.6086 11.0268 15.1361 10.6961 14.1912 10.0347L9.51754 6.76309C8.70277 6.19276 8.29539 5.90759 7.95628 5.92243C7.66099 5.93535 7.38655 6.07824 7.20662 6.31274C7 6.58204 7 7.07931 7 8.07386Z" stroke="white" stroke-width="2" stroke-linecap="round" stroke-linejoin="round"/>
</svg>
